<svg width="27" height="26" viewBox="0 0 27 26" fill="none" xmlns="http://www.w3.org/2000/svg">
<path d="M22.1666 8.66667L15.6666 2.96834C15.0708 2.43539 14.2994 2.14075 13.5 2.14075C12.7006 2.14075 11.9292 2.43539 11.3333 2.96834L4.83331 8.66667C4.48921 8.97442 4.21462 9.35194 4.02783 9.77411C3.84103 10.1963 3.74631 10.6534 3.74998 11.115V20.5833C3.74998 21.4453 4.09239 22.2719 4.70188 22.8814C5.31138 23.4909 6.13803 23.8333 6.99998 23.8333H20C20.8619 23.8333 21.6886 23.4909 22.2981 22.8814C22.9076 22.2719 23.25 21.4453 23.25 20.5833V11.1042C23.2521 10.6444 23.1567 10.1893 22.9699 9.76916C22.7832 9.34898 22.5094 8.97321 22.1666 8.66667ZM15.6666 21.6667H11.3333V16.25C11.3333 15.9627 11.4475 15.6871 11.6506 15.484C11.8538 15.2808 12.1293 15.1667 12.4166 15.1667H14.5833C14.8706 15.1667 15.1462 15.2808 15.3493 15.484C15.5525 15.6871 15.6666 15.9627 15.6666 16.25V21.6667ZM21.0833 20.5833C21.0833 20.8707 20.9692 21.1462 20.766 21.3494C20.5628 21.5525 20.2873 21.6667 20 21.6667H17.8333V16.25C17.8333 15.3881 17.4909 14.5614 16.8814 13.9519C16.2719 13.3424 15.4453 13 14.5833 13H12.4166C11.5547 13 10.728 13.3424 10.1186 13.9519C9.50906 14.5614 9.16665 15.3881 9.16665 16.25V21.6667H6.99998C6.71266 21.6667 6.43711 21.5525 6.23395 21.3494C6.03078 21.1462 5.91665 20.8707 5.91665 20.5833V11.1042C5.91684 10.9504 5.94979 10.7983 6.0133 10.6583C6.07681 10.5182 6.16942 10.3932 6.28498 10.2917L12.785 4.60417C12.9827 4.43049 13.2368 4.33471 13.5 4.33471C13.7631 4.33471 14.0173 4.43049 14.215 4.60417L20.715 10.2917C20.8305 10.3932 20.9232 10.5182 20.9867 10.6583C21.0502 10.7983 21.0831 10.9504 21.0833 11.1042V20.5833Z" fill="#757575"/>
</svg>
