<svg width="74" height="24" viewBox="0 0 74 24" fill="none" xmlns="http://www.w3.org/2000/svg">
<path d="M19.071 4.92898C18.1454 3.99604 17.0439 3.25598 15.8303 2.75167C14.6168 2.24736 13.3152 1.9888 12.001 1.99098C10.6865 1.98892 9.3847 2.24752 8.17081 2.75182C6.95692 3.25612 5.85507 3.99611 4.92901 4.92898C1.03001 8.82698 1.03001 15.172 4.92901 19.071C5.85509 20.0041 6.95708 20.7442 8.17117 21.2486C9.38527 21.7529 10.6873 22.0113 12.002 22.009C13.3161 22.0113 14.6176 21.7529 15.8312 21.2488C17.0448 20.7446 18.1463 20.0047 19.072 19.072C22.971 15.174 22.971 8.82898 19.071 4.92898ZM12.181 3.99998H11.822C11.883 3.99898 11.941 3.99098 12.002 3.99098C12.063 3.99098 12.12 3.99898 12.181 3.99998ZM18.243 17H16L14.742 19.516C13.8644 19.8402 12.9365 20.0071 12.001 20.009C11.0637 20.0073 10.1341 19.84 9.25501 19.515L8.00001 17.01H5.76501C4.94044 15.9849 4.38282 14.7713 4.14201 13.478L6.00001 11L4.78401 8.56698C5.17201 7.74157 5.6994 6.98922 6.34301 6.34298C7.24379 5.43904 8.3479 4.76389 9.56301 4.37398L12 5.99998L14.438 4.37498C15.6527 4.76517 16.7567 5.43989 17.658 6.34298C18.3009 6.98845 18.8279 7.73975 19.216 8.56398L18 11L19.858 13.478C19.6183 14.7672 19.0635 15.9771 18.243 17Z" fill="#8839C6"/>
<path d="M8.5 11L10 15H14L15.5 11L12 8.5L8.5 11Z" fill="#8839C6"/>
<path d="M24.9055 18V9.81818H27.1747V18H24.9055ZM26.0455 8.76349C25.7081 8.76349 25.4187 8.65163 25.1772 8.42791C24.9393 8.20064 24.8203 7.92898 24.8203 7.61293C24.8203 7.30043 24.9393 7.03232 25.1772 6.80859C25.4187 6.58132 25.7081 6.46768 26.0455 6.46768C26.3828 6.46768 26.6705 6.58132 26.9084 6.80859C27.1499 7.03232 27.2706 7.30043 27.2706 7.61293C27.2706 7.92898 27.1499 8.20064 26.9084 8.42791C26.6705 8.65163 26.3828 8.76349 26.0455 8.76349ZM29.0351 18V7.09091H36.2581V8.99254H31.3415V11.592H35.7787V13.4936H31.3415V18H29.0351ZM42.501 14.5163V9.81818H44.7702V18H42.5915V16.5138H42.5063C42.3216 16.9933 42.0145 17.3786 41.5848 17.6697C41.1586 17.9609 40.6384 18.1065 40.0241 18.1065C39.4772 18.1065 38.996 17.9822 38.5805 17.7337C38.165 17.4851 37.8401 17.1317 37.6057 16.6737C37.3749 16.2156 37.2577 15.6669 37.2542 15.0277V9.81818H39.5233V14.6229C39.5269 15.1058 39.6565 15.4876 39.9122 15.7681C40.1679 16.0487 40.5106 16.1889 40.9403 16.1889C41.2137 16.1889 41.4694 16.1268 41.7073 16.0025C41.9452 15.8746 42.137 15.6864 42.2826 15.4379C42.4317 15.1893 42.5045 14.8821 42.501 14.5163ZM50.9371 9.81818V11.5227H46.0099V9.81818H50.9371ZM47.1286 7.85795H49.3977V15.4858C49.3977 15.6953 49.4297 15.8587 49.4936 15.9759C49.5575 16.0895 49.6463 16.1694 49.7599 16.2156C49.8771 16.2617 50.0121 16.2848 50.1648 16.2848C50.2713 16.2848 50.3778 16.2759 50.4844 16.2582C50.5909 16.2369 50.6726 16.2209 50.7294 16.2102L51.0863 17.8988C50.9727 17.9343 50.8129 17.9751 50.6069 18.0213C50.4009 18.071 50.1506 18.1012 49.8558 18.1119C49.3089 18.1332 48.8295 18.0604 48.4176 17.8935C48.0092 17.7266 47.6914 17.4673 47.4641 17.1158C47.2369 16.7642 47.125 16.3203 47.1286 15.7841V7.85795ZM53.7417 18.1385C53.3901 18.1385 53.0882 18.0142 52.8361 17.7656C52.5875 17.5135 52.4632 17.2116 52.4632 16.8601C52.4632 16.5121 52.5875 16.2138 52.8361 15.9652C53.0882 15.7166 53.3901 15.5923 53.7417 15.5923C54.0826 15.5923 54.3809 15.7166 54.6365 15.9652C54.8922 16.2138 55.0201 16.5121 55.0201 16.8601C55.0201 17.0945 54.9597 17.3093 54.839 17.5046C54.7218 17.6964 54.5673 17.8509 54.3755 17.968C54.1838 18.0817 53.9725 18.1385 53.7417 18.1385ZM62.1299 14.5163V9.81818H64.3991V18H62.2204V16.5138H62.1352C61.9506 16.9933 61.6434 17.3786 61.2137 17.6697C60.7876 17.9609 60.2673 18.1065 59.653 18.1065C59.1061 18.1065 58.6249 17.9822 58.2094 17.7337C57.7939 17.4851 57.469 17.1317 57.2346 16.6737C57.0038 16.2156 56.8866 15.6669 56.8831 15.0277V9.81818H59.1523V14.6229C59.1558 15.1058 59.2854 15.4876 59.5411 15.7681C59.7968 16.0487 60.1395 16.1889 60.5692 16.1889C60.8426 16.1889 61.0983 16.1268 61.3362 16.0025C61.5741 15.8746 61.7659 15.6864 61.9115 15.4379C62.0606 15.1893 62.1334 14.8821 62.1299 14.5163ZM66.1715 18V16.647L70.1772 11.6879V11.6293H66.31V9.81818H72.9098V11.2937L69.1491 16.1303V16.1889H73.0483V18H66.1715Z" fill="black"/>
</svg>
